<svg xmlns="http://www.w3.org/2000/svg" xmlns:xlink="http://www.w3.org/1999/xlink" width="600" height="596.897" viewBox="0 0 600 596.897">
  <defs>
    <linearGradient id="linear-gradient" x1="0.5" x2="0.5" y2="1" gradientUnits="objectBoundingBox">
      <stop offset="0" stop-color="#223253"/>
      <stop offset="1" stop-color="#070a11"/>
    </linearGradient>
    <filter id="Subtraction_37" x="29" y="77.477" width="132.921" height="45.694" filterUnits="userSpaceOnUse">
      <feOffset dy="3" input="SourceAlpha"/>
      <feGaussianBlur stdDeviation="3" result="blur"/>
      <feFlood flood-opacity="0.161"/>
      <feComposite operator="in" in2="blur"/>
      <feComposite in="SourceGraphic"/>
    </filter>
    <filter id="Subtraction_37-2" x="179" y="410.712" width="206.233" height="62.999" filterUnits="userSpaceOnUse">
      <feOffset dy="3" input="SourceAlpha"/>
      <feGaussianBlur stdDeviation="3" result="blur-2"/>
      <feFlood flood-opacity="0.161"/>
      <feComposite operator="in" in2="blur-2"/>
      <feComposite in="SourceGraphic"/>
    </filter>
    <filter id="Subtraction_39" x="460" y="347.274" width="132.921" height="45.897" filterUnits="userSpaceOnUse">
      <feOffset dy="3" input="SourceAlpha"/>
      <feGaussianBlur stdDeviation="3" result="blur-3"/>
      <feFlood flood-opacity="0.161"/>
      <feComposite operator="in" in2="blur-3"/>
      <feComposite in="SourceGraphic"/>
    </filter>
    <filter id="body" x="81.019" y="267.24" width="110.796" height="110.677" filterUnits="userSpaceOnUse">
      <feOffset dy="3" input="SourceAlpha"/>
      <feGaussianBlur stdDeviation="3" result="blur-4"/>
      <feFlood flood-opacity="0.557"/>
      <feComposite operator="in" in2="blur-4"/>
      <feComposite in="SourceGraphic"/>
    </filter>
    <filter id="Union_2" x="48.397" y="300.156" width="100.395" height="98.744" filterUnits="userSpaceOnUse">
      <feOffset dy="3" input="SourceAlpha"/>
      <feGaussianBlur stdDeviation="3" result="blur-5"/>
      <feFlood flood-opacity="0.561"/>
      <feComposite operator="in" in2="blur-5"/>
      <feComposite in="SourceGraphic"/>
    </filter>
    <linearGradient id="linear-gradient-2" x1="0.5" x2="0.5" y2="1" gradientUnits="objectBoundingBox">
      <stop offset="0" stop-color="#e81616"/>
      <stop offset="1" stop-color="#f79325"/>
    </linearGradient>
    <filter id="Path_20" x="104.048" y="288.619" width="65.209" height="64.548" filterUnits="userSpaceOnUse">
      <feOffset dy="3" input="SourceAlpha"/>
      <feGaussianBlur stdDeviation="3" result="blur-6"/>
      <feFlood flood-opacity="0.161"/>
      <feComposite operator="in" in2="blur-6"/>
      <feComposite in="SourceGraphic"/>
    </filter>
    <linearGradient id="linear-gradient-3" x1="0.5" x2="0.5" y2="1" gradientUnits="objectBoundingBox">
      <stop offset="0" stop-color="#1d2c4a"/>
      <stop offset="1" stop-color="#06090f"/>
    </linearGradient>
  </defs>
  <g id="cx-landing" transform="translate(-75 -209)">
    <path id="background" d="M78.56,596.9h0L50.921,571.935,46,581.3V0H646V529.518l-17.066,42.416L592.681,534.02,566.5,559.629l-36.51-34.1L511.8,554.765l-65.877-84.848-18.78,32.449-9.583-11.26-13.486,22.748-23.453-29.667L317.684,596.9,294.7,548.9l-17.651,42.667-15.956-19.634-5.359,19.634-82.608-89.2L150.9,525.528,122.091,491.1,78.561,596.9Z" transform="translate(29 209)" fill="url(#linear-gradient)"/>
    <g id="stars" transform="translate(357.275 267)">
      <path id="Subtraction_7" data-name="Subtraction 7" d="M21.3,20.7a14.664,14.664,0,0,0-2.217-1.5,16.23,16.23,0,0,0-2.565-1.137,18.047,18.047,0,0,0-5.9-.97,18.118,18.118,0,0,0-5.765.924A15.415,15.415,0,0,0,0,20.635a20.974,20.974,0,0,0,2.87-8.054A19.641,19.641,0,0,0,.652,0c.376.271.774.531,1.185.774A16.828,16.828,0,0,0,4.564,2.067a18.072,18.072,0,0,0,6.277,1.1,18.081,18.081,0,0,0,6.278-1.1A16.813,16.813,0,0,0,19.845.774c.179-.106.373-.226.577-.357A19.813,19.813,0,0,0,18.887,4.5a21.877,21.877,0,0,0-.467,8.323,20.46,20.46,0,0,0,.79,3.474,18.775,18.775,0,0,0,1.328,3.125c.234.434.489.862.758,1.271Z" transform="matrix(0.848, 0.53, -0.53, 0.848, 10.967, 26.03)" fill="#fff"/>
      <path id="Subtraction_27" data-name="Subtraction 27" d="M15.186,14.586A10.464,10.464,0,0,0,13.6,13.529a11.642,11.642,0,0,0-1.829-.8,13.008,13.008,0,0,0-4.209-.684,13.06,13.06,0,0,0-4.111.651A11.033,11.033,0,0,0,0,14.544,14.671,14.671,0,0,0,2.047,8.867,13.7,13.7,0,0,0,.465,0c.268.191.552.375.845.546a12.065,12.065,0,0,0,1.944.911,13.024,13.024,0,0,0,4.476.778,13.03,13.03,0,0,0,4.477-.778A12.053,12.053,0,0,0,14.152.546c.128-.075.266-.159.411-.252a13.863,13.863,0,0,0-1.094,2.879,15.243,15.243,0,0,0-.333,5.866,14.276,14.276,0,0,0,.564,2.448,13.151,13.151,0,0,0,.947,2.2c.167.306.349.607.541.9Z" transform="matrix(0.848, 0.53, -0.53, 0.848, 219.766, 256.142)" fill="#fff"/>
      <path id="Subtraction_11" data-name="Subtraction 11" d="M10.822,10.222A7.468,7.468,0,0,0,9.7,9.482a8.37,8.37,0,0,0-1.3-.561,9.412,9.412,0,0,0-3-.479,9.451,9.451,0,0,0-2.93.456A7.906,7.906,0,0,0,0,10.192,10.173,10.173,0,0,0,1.459,6.214,9.468,9.468,0,0,0,.331,0c.191.134.394.263.6.383a8.666,8.666,0,0,0,1.386.639,9.422,9.422,0,0,0,3.19.545A9.427,9.427,0,0,0,8.7,1.021,8.657,8.657,0,0,0,10.085.383c.091-.052.19-.112.293-.177A9.617,9.617,0,0,0,9.6,2.224a10.51,10.51,0,0,0-.238,4.111,9.866,9.866,0,0,0,.4,1.716,9.137,9.137,0,0,0,.675,1.543c.119.214.248.426.385.628Z" transform="matrix(0.848, 0.53, -0.53, 0.848, 152.921, 0)" fill="#fff"/>
      <path id="Subtraction_19" data-name="Subtraction 19" d="M10.822,10.222A7.468,7.468,0,0,0,9.7,9.482a8.37,8.37,0,0,0-1.3-.561,9.412,9.412,0,0,0-3-.479,9.451,9.451,0,0,0-2.93.456A7.906,7.906,0,0,0,0,10.192,10.173,10.173,0,0,0,1.459,6.214,9.468,9.468,0,0,0,.331,0c.191.134.394.263.6.383a8.666,8.666,0,0,0,1.386.639,9.422,9.422,0,0,0,3.19.545A9.427,9.427,0,0,0,8.7,1.021,8.657,8.657,0,0,0,10.085.383c.091-.052.19-.112.293-.177A9.617,9.617,0,0,0,9.6,2.224a10.51,10.51,0,0,0-.238,4.111,9.866,9.866,0,0,0,.4,1.716,9.137,9.137,0,0,0,.675,1.543c.119.214.248.426.385.628Z" transform="matrix(0.848, 0.53, -0.53, 0.848, 12.399, 237.404)" fill="#fff"/>
      <path id="Subtraction_35" data-name="Subtraction 35" d="M10.822,10.222A7.468,7.468,0,0,0,9.7,9.482a8.37,8.37,0,0,0-1.3-.561,9.412,9.412,0,0,0-3-.479,9.451,9.451,0,0,0-2.93.456A7.906,7.906,0,0,0,0,10.192,10.173,10.173,0,0,0,1.459,6.214,9.468,9.468,0,0,0,.331,0c.191.134.394.263.6.383a8.666,8.666,0,0,0,1.386.639,9.422,9.422,0,0,0,3.19.545A9.427,9.427,0,0,0,8.7,1.021,8.657,8.657,0,0,0,10.085.383c.091-.052.19-.112.293-.177A9.617,9.617,0,0,0,9.6,2.224a10.51,10.51,0,0,0-.238,4.111,9.866,9.866,0,0,0,.4,1.716,9.137,9.137,0,0,0,.675,1.543c.119.214.248.426.385.628Z" transform="matrix(0.848, 0.53, -0.53, 0.848, 68.259, 57.605)" fill="#fff"/>
      <path id="Subtraction_23" data-name="Subtraction 23" d="M8.2,7.6a5.672,5.672,0,0,0-.854-.551,6.409,6.409,0,0,0-.988-.418,7.26,7.26,0,0,0-2.274-.356,7.29,7.29,0,0,0-2.221.339A6.033,6.033,0,0,0,0,7.581,7.479,7.479,0,0,0,1.106,4.622,6.931,6.931,0,0,0,.251,0C.4.1.55.2.708.285A6.629,6.629,0,0,0,1.758.76a7.266,7.266,0,0,0,2.418.405A7.269,7.269,0,0,0,6.6.76,6.622,6.622,0,0,0,7.645.285C7.714.246,7.789.2,7.867.153a7.073,7.073,0,0,0-.591,1.5A7.675,7.675,0,0,0,7.1,4.712a7.223,7.223,0,0,0,.3,1.276,6.731,6.731,0,0,0,.512,1.148c.09.16.188.317.292.467Z" transform="matrix(0.848, 0.53, -0.53, 0.848, 108.766, 193.365)" fill="#fff"/>
      <path id="Subtraction_15" data-name="Subtraction 15" d="M5.586,4.985A3.883,3.883,0,0,0,5,4.624a4.457,4.457,0,0,0-.673-.274,5.117,5.117,0,0,0-1.548-.234,5.139,5.139,0,0,0-1.512.223A4.166,4.166,0,0,0,0,4.971,4.793,4.793,0,0,0,.753,3.03,4.4,4.4,0,0,0,.171,0c.1.065.2.128.311.187A4.6,4.6,0,0,0,1.2.5,5.119,5.119,0,0,0,2.844.764,5.122,5.122,0,0,0,4.49.5,4.6,4.6,0,0,0,5.205.187C5.252.161,5.3.132,5.356.1a4.537,4.537,0,0,0-.4.984,4.851,4.851,0,0,0-.123,2,4.589,4.589,0,0,0,.207.837,4.333,4.333,0,0,0,.348.753c.061.1.128.208.2.306Z" transform="matrix(0.848, 0.53, -0.53, 0.848, 254.883, 18.406)" fill="#fff"/>
      <path id="Subtraction_31" data-name="Subtraction 31" d="M5.586,4.985A3.883,3.883,0,0,0,5,4.624a4.457,4.457,0,0,0-.673-.274,5.117,5.117,0,0,0-1.548-.234,5.139,5.139,0,0,0-1.512.223A4.166,4.166,0,0,0,0,4.971,4.793,4.793,0,0,0,.753,3.03,4.4,4.4,0,0,0,.171,0c.1.065.2.128.311.187A4.6,4.6,0,0,0,1.2.5,5.119,5.119,0,0,0,2.844.764,5.122,5.122,0,0,0,4.49.5,4.6,4.6,0,0,0,5.205.187C5.252.161,5.3.132,5.356.1a4.537,4.537,0,0,0-.4.984,4.851,4.851,0,0,0-.123,2,4.589,4.589,0,0,0,.207.837,4.333,4.333,0,0,0,.348.753c.061.1.128.208.2.306Z" transform="matrix(0.848, 0.53, -0.53, 0.848, 300.269, 68.156)" fill="#fff"/>
    </g>
    <g id="stars-2" data-name="stars" transform="translate(357.275 267)">
      <path id="Subtraction_7-2" data-name="Subtraction 7" d="M21.3,20.7a14.664,14.664,0,0,0-2.217-1.5,16.23,16.23,0,0,0-2.565-1.137,18.047,18.047,0,0,0-5.9-.97,18.118,18.118,0,0,0-5.765.924A15.415,15.415,0,0,0,0,20.635a20.974,20.974,0,0,0,2.87-8.054A19.641,19.641,0,0,0,.652,0c.376.271.774.531,1.185.774A16.828,16.828,0,0,0,4.564,2.067a18.072,18.072,0,0,0,6.277,1.1,18.081,18.081,0,0,0,6.278-1.1A16.813,16.813,0,0,0,19.845.774c.179-.106.373-.226.577-.357A19.813,19.813,0,0,0,18.887,4.5a21.877,21.877,0,0,0-.467,8.323,20.46,20.46,0,0,0,.79,3.474,18.775,18.775,0,0,0,1.328,3.125c.234.434.489.862.758,1.271Z" transform="matrix(0.848, 0.53, -0.53, 0.848, 10.967, 26.03)" fill="#fff"/>
      <path id="Subtraction_66" data-name="Subtraction 66" d="M21.3,20.7a14.664,14.664,0,0,0-2.217-1.5,16.23,16.23,0,0,0-2.565-1.137,18.047,18.047,0,0,0-5.9-.97,18.118,18.118,0,0,0-5.765.924A15.415,15.415,0,0,0,0,20.635a20.974,20.974,0,0,0,2.87-8.054A19.641,19.641,0,0,0,.652,0c.376.271.774.531,1.185.774A16.828,16.828,0,0,0,4.564,2.067a18.072,18.072,0,0,0,6.277,1.1,18.081,18.081,0,0,0,6.278-1.1A16.813,16.813,0,0,0,19.845.774c.179-.106.373-.226.577-.357A19.813,19.813,0,0,0,18.887,4.5a21.877,21.877,0,0,0-.467,8.323,20.46,20.46,0,0,0,.79,3.474,18.775,18.775,0,0,0,1.328,3.125c.234.434.489.862.758,1.271Z" transform="matrix(0.848, 0.53, -0.53, 0.848, -129.033, 426.03)" fill="#fff"/>
      <path id="Subtraction_27-2" data-name="Subtraction 27" d="M15.186,14.586A10.464,10.464,0,0,0,13.6,13.529a11.642,11.642,0,0,0-1.829-.8,13.008,13.008,0,0,0-4.209-.684,13.06,13.06,0,0,0-4.111.651A11.033,11.033,0,0,0,0,14.544,14.671,14.671,0,0,0,2.047,8.867,13.7,13.7,0,0,0,.465,0c.268.191.552.375.845.546a12.065,12.065,0,0,0,1.944.911,13.024,13.024,0,0,0,4.476.778,13.03,13.03,0,0,0,4.477-.778A12.053,12.053,0,0,0,14.152.546c.128-.075.266-.159.411-.252a13.863,13.863,0,0,0-1.094,2.879,15.243,15.243,0,0,0-.333,5.866,14.276,14.276,0,0,0,.564,2.448,13.151,13.151,0,0,0,.947,2.2c.167.306.349.607.541.9Z" transform="matrix(0.848, 0.53, -0.53, 0.848, 219.766, 256.142)" fill="#fff"/>
      <path id="Subtraction_46" data-name="Subtraction 46" d="M15.186,14.586A10.464,10.464,0,0,0,13.6,13.529a11.642,11.642,0,0,0-1.829-.8,13.008,13.008,0,0,0-4.209-.684,13.06,13.06,0,0,0-4.111.651A11.033,11.033,0,0,0,0,14.544,14.671,14.671,0,0,0,2.047,8.867,13.7,13.7,0,0,0,.465,0c.268.191.552.375.845.546a12.065,12.065,0,0,0,1.944.911,13.024,13.024,0,0,0,4.476.778,13.03,13.03,0,0,0,4.477-.778A12.053,12.053,0,0,0,14.152.546c.128-.075.266-.159.411-.252a13.863,13.863,0,0,0-1.094,2.879,15.243,15.243,0,0,0-.333,5.866,14.276,14.276,0,0,0,.564,2.448,13.151,13.151,0,0,0,.947,2.2c.167.306.349.607.541.9Z" transform="matrix(0.848, 0.53, -0.53, 0.848, 151.766, 409.142)" fill="#fff"/>
      <path id="Subtraction_11-2" data-name="Subtraction 11" d="M10.822,10.222A7.468,7.468,0,0,0,9.7,9.482a8.37,8.37,0,0,0-1.3-.561,9.412,9.412,0,0,0-3-.479,9.451,9.451,0,0,0-2.93.456A7.906,7.906,0,0,0,0,10.192,10.173,10.173,0,0,0,1.459,6.214,9.468,9.468,0,0,0,.331,0c.191.134.394.263.6.383a8.666,8.666,0,0,0,1.386.639,9.422,9.422,0,0,0,3.19.545A9.427,9.427,0,0,0,8.7,1.021,8.657,8.657,0,0,0,10.085.383c.091-.052.19-.112.293-.177A9.617,9.617,0,0,0,9.6,2.224a10.51,10.51,0,0,0-.238,4.111,9.866,9.866,0,0,0,.4,1.716,9.137,9.137,0,0,0,.675,1.543c.119.214.248.426.385.628Z" transform="matrix(0.848, 0.53, -0.53, 0.848, 152.921, 0)" fill="#fff"/>
      <path id="Subtraction_19-2" data-name="Subtraction 19" d="M10.822,10.222A7.468,7.468,0,0,0,9.7,9.482a8.37,8.37,0,0,0-1.3-.561,9.412,9.412,0,0,0-3-.479,9.451,9.451,0,0,0-2.93.456A7.906,7.906,0,0,0,0,10.192,10.173,10.173,0,0,0,1.459,6.214,9.468,9.468,0,0,0,.331,0c.191.134.394.263.6.383a8.666,8.666,0,0,0,1.386.639,9.422,9.422,0,0,0,3.19.545A9.427,9.427,0,0,0,8.7,1.021,8.657,8.657,0,0,0,10.085.383c.091-.052.19-.112.293-.177A9.617,9.617,0,0,0,9.6,2.224a10.51,10.51,0,0,0-.238,4.111,9.866,9.866,0,0,0,.4,1.716,9.137,9.137,0,0,0,.675,1.543c.119.214.248.426.385.628Z" transform="matrix(0.848, 0.53, -0.53, 0.848, 12.399, 237.404)" fill="#fff"/>
      <path id="Subtraction_82" data-name="Subtraction 82" d="M10.822,10.222A7.468,7.468,0,0,0,9.7,9.482a8.37,8.37,0,0,0-1.3-.561,9.412,9.412,0,0,0-3-.479,9.451,9.451,0,0,0-2.93.456A7.906,7.906,0,0,0,0,10.192,10.173,10.173,0,0,0,1.459,6.214,9.468,9.468,0,0,0,.331,0c.191.134.394.263.6.383a8.666,8.666,0,0,0,1.386.639,9.422,9.422,0,0,0,3.19.545A9.427,9.427,0,0,0,8.7,1.021,8.657,8.657,0,0,0,10.085.383c.091-.052.19-.112.293-.177A9.617,9.617,0,0,0,9.6,2.224a10.51,10.51,0,0,0-.238,4.111,9.866,9.866,0,0,0,.4,1.716,9.137,9.137,0,0,0,.675,1.543c.119.214.248.426.385.628Z" transform="matrix(0.848, 0.53, -0.53, 0.848, -267.601, 467.404)" fill="#fff"/>
      <path id="Subtraction_35-2" data-name="Subtraction 35" d="M10.822,10.222A7.468,7.468,0,0,0,9.7,9.482a8.37,8.37,0,0,0-1.3-.561,9.412,9.412,0,0,0-3-.479,9.451,9.451,0,0,0-2.93.456A7.906,7.906,0,0,0,0,10.192,10.173,10.173,0,0,0,1.459,6.214,9.468,9.468,0,0,0,.331,0c.191.134.394.263.6.383a8.666,8.666,0,0,0,1.386.639,9.422,9.422,0,0,0,3.19.545A9.427,9.427,0,0,0,8.7,1.021,8.657,8.657,0,0,0,10.085.383c.091-.052.19-.112.293-.177A9.617,9.617,0,0,0,9.6,2.224a10.51,10.51,0,0,0-.238,4.111,9.866,9.866,0,0,0,.4,1.716,9.137,9.137,0,0,0,.675,1.543c.119.214.248.426.385.628Z" transform="matrix(0.848, 0.53, -0.53, 0.848, 68.259, 57.605)" fill="#fff"/>
      <path id="Subtraction_23-2" data-name="Subtraction 23" d="M8.2,7.6a5.672,5.672,0,0,0-.854-.551,6.409,6.409,0,0,0-.988-.418,7.26,7.26,0,0,0-2.274-.356,7.29,7.29,0,0,0-2.221.339A6.033,6.033,0,0,0,0,7.581,7.479,7.479,0,0,0,1.106,4.622,6.931,6.931,0,0,0,.251,0C.4.1.55.2.708.285A6.629,6.629,0,0,0,1.758.76a7.266,7.266,0,0,0,2.418.405A7.269,7.269,0,0,0,6.6.76,6.622,6.622,0,0,0,7.645.285C7.714.246,7.789.2,7.867.153a7.073,7.073,0,0,0-.591,1.5A7.675,7.675,0,0,0,7.1,4.712a7.223,7.223,0,0,0,.3,1.276,6.731,6.731,0,0,0,.512,1.148c.09.16.188.317.292.467Z" transform="matrix(0.848, 0.53, -0.53, 0.848, 108.766, 193.365)" fill="#fff"/>
      <path id="Subtraction_62" data-name="Subtraction 62" d="M8.2,7.6a5.672,5.672,0,0,0-.854-.551,6.409,6.409,0,0,0-.988-.418,7.26,7.26,0,0,0-2.274-.356,7.29,7.29,0,0,0-2.221.339A6.033,6.033,0,0,0,0,7.581,7.479,7.479,0,0,0,1.106,4.622,6.931,6.931,0,0,0,.251,0C.4.1.55.2.708.285A6.629,6.629,0,0,0,1.758.76a7.266,7.266,0,0,0,2.418.405A7.269,7.269,0,0,0,6.6.76,6.622,6.622,0,0,0,7.645.285C7.714.246,7.789.2,7.867.153a7.073,7.073,0,0,0-.591,1.5A7.675,7.675,0,0,0,7.1,4.712a7.223,7.223,0,0,0,.3,1.276,6.731,6.731,0,0,0,.512,1.148c.09.16.188.317.292.467Z" transform="matrix(0.848, 0.53, -0.53, 0.848, -171.234, 163.365)" fill="#fff"/>
      <path id="Subtraction_74" data-name="Subtraction 74" d="M8.2,7.6a5.672,5.672,0,0,0-.854-.551,6.409,6.409,0,0,0-.988-.418,7.26,7.26,0,0,0-2.274-.356,7.29,7.29,0,0,0-2.221.339A6.033,6.033,0,0,0,0,7.581,7.479,7.479,0,0,0,1.106,4.622,6.931,6.931,0,0,0,.251,0C.4.1.55.2.708.285A6.629,6.629,0,0,0,1.758.76a7.266,7.266,0,0,0,2.418.405A7.269,7.269,0,0,0,6.6.76,6.622,6.622,0,0,0,7.645.285C7.714.246,7.789.2,7.867.153a7.073,7.073,0,0,0-.591,1.5A7.675,7.675,0,0,0,7.1,4.712a7.223,7.223,0,0,0,.3,1.276,6.731,6.731,0,0,0,.512,1.148c.09.16.188.317.292.467Z" transform="matrix(0.848, 0.53, -0.53, 0.848, -261.234, 3.365)" fill="#fff"/>
      <path id="Subtraction_50" data-name="Subtraction 50" d="M8.2,7.6a5.672,5.672,0,0,0-.854-.551,6.409,6.409,0,0,0-.988-.418,7.26,7.26,0,0,0-2.274-.356,7.29,7.29,0,0,0-2.221.339A6.033,6.033,0,0,0,0,7.581,7.479,7.479,0,0,0,1.106,4.622,6.931,6.931,0,0,0,.251,0C.4.1.55.2.708.285A6.629,6.629,0,0,0,1.758.76a7.266,7.266,0,0,0,2.418.405A7.269,7.269,0,0,0,6.6.76,6.622,6.622,0,0,0,7.645.285C7.714.246,7.789.2,7.867.153a7.073,7.073,0,0,0-.591,1.5A7.675,7.675,0,0,0,7.1,4.712a7.223,7.223,0,0,0,.3,1.276,6.731,6.731,0,0,0,.512,1.148c.09.16.188.317.292.467Z" transform="matrix(0.848, 0.53, -0.53, 0.848, 68.766, 337.365)" fill="#fff"/>
      <path id="Subtraction_54" data-name="Subtraction 54" d="M8.2,7.6a5.672,5.672,0,0,0-.854-.551,6.409,6.409,0,0,0-.988-.418,7.26,7.26,0,0,0-2.274-.356,7.29,7.29,0,0,0-2.221.339A6.033,6.033,0,0,0,0,7.581,7.479,7.479,0,0,0,1.106,4.622,6.931,6.931,0,0,0,.251,0C.4.1.55.2.708.285A6.629,6.629,0,0,0,1.758.76a7.266,7.266,0,0,0,2.418.405A7.269,7.269,0,0,0,6.6.76,6.622,6.622,0,0,0,7.645.285C7.714.246,7.789.2,7.867.153a7.073,7.073,0,0,0-.591,1.5A7.675,7.675,0,0,0,7.1,4.712a7.223,7.223,0,0,0,.3,1.276,6.731,6.731,0,0,0,.512,1.148c.09.16.188.317.292.467Z" transform="matrix(0.848, 0.53, -0.53, 0.848, -101.234, 327.365)" fill="#fff"/>
      <path id="Subtraction_15-2" data-name="Subtraction 15" d="M5.586,4.985A3.883,3.883,0,0,0,5,4.624a4.457,4.457,0,0,0-.673-.274,5.117,5.117,0,0,0-1.548-.234,5.139,5.139,0,0,0-1.512.223A4.166,4.166,0,0,0,0,4.971,4.793,4.793,0,0,0,.753,3.03,4.4,4.4,0,0,0,.171,0c.1.065.2.128.311.187A4.6,4.6,0,0,0,1.2.5,5.119,5.119,0,0,0,2.844.764,5.122,5.122,0,0,0,4.49.5,4.6,4.6,0,0,0,5.205.187C5.252.161,5.3.132,5.356.1a4.537,4.537,0,0,0-.4.984,4.851,4.851,0,0,0-.123,2,4.589,4.589,0,0,0,.207.837,4.333,4.333,0,0,0,.348.753c.061.1.128.208.2.306Z" transform="matrix(0.848, 0.53, -0.53, 0.848, 254.883, 18.406)" fill="#fff"/>
      <path id="Subtraction_70" data-name="Subtraction 70" d="M5.586,4.985A3.883,3.883,0,0,0,5,4.624a4.457,4.457,0,0,0-.673-.274,5.117,5.117,0,0,0-1.548-.234,5.139,5.139,0,0,0-1.512.223A4.166,4.166,0,0,0,0,4.971,4.793,4.793,0,0,0,.753,3.03,4.4,4.4,0,0,0,.171,0c.1.065.2.128.311.187A4.6,4.6,0,0,0,1.2.5,5.119,5.119,0,0,0,2.844.764,5.122,5.122,0,0,0,4.49.5,4.6,4.6,0,0,0,5.205.187C5.252.161,5.3.132,5.356.1a4.537,4.537,0,0,0-.4.984,4.851,4.851,0,0,0-.123,2,4.589,4.589,0,0,0,.207.837,4.333,4.333,0,0,0,.348.753c.061.1.128.208.2.306Z" transform="matrix(0.848, 0.53, -0.53, 0.848, -55.117, 148.406)" fill="#fff"/>
      <path id="Subtraction_78" data-name="Subtraction 78" d="M5.586,4.985A3.883,3.883,0,0,0,5,4.624a4.457,4.457,0,0,0-.673-.274,5.117,5.117,0,0,0-1.548-.234,5.139,5.139,0,0,0-1.512.223A4.166,4.166,0,0,0,0,4.971,4.793,4.793,0,0,0,.753,3.03,4.4,4.4,0,0,0,.171,0c.1.065.2.128.311.187A4.6,4.6,0,0,0,1.2.5,5.119,5.119,0,0,0,2.844.764,5.122,5.122,0,0,0,4.49.5,4.6,4.6,0,0,0,5.205.187C5.252.161,5.3.132,5.356.1a4.537,4.537,0,0,0-.4.984,4.851,4.851,0,0,0-.123,2,4.589,4.589,0,0,0,.207.837,4.333,4.333,0,0,0,.348.753c.061.1.128.208.2.306Z" transform="matrix(0.848, 0.53, -0.53, 0.848, -85.117, -1.594)" fill="#fff"/>
      <path id="Subtraction_31-2" data-name="Subtraction 31" d="M5.586,4.985A3.883,3.883,0,0,0,5,4.624a4.457,4.457,0,0,0-.673-.274,5.117,5.117,0,0,0-1.548-.234,5.139,5.139,0,0,0-1.512.223A4.166,4.166,0,0,0,0,4.971,4.793,4.793,0,0,0,.753,3.03,4.4,4.4,0,0,0,.171,0c.1.065.2.128.311.187A4.6,4.6,0,0,0,1.2.5,5.119,5.119,0,0,0,2.844.764,5.122,5.122,0,0,0,4.49.5,4.6,4.6,0,0,0,5.205.187C5.252.161,5.3.132,5.356.1a4.537,4.537,0,0,0-.4.984,4.851,4.851,0,0,0-.123,2,4.589,4.589,0,0,0,.207.837,4.333,4.333,0,0,0,.348.753c.061.1.128.208.2.306Z" transform="matrix(0.848, 0.53, -0.53, 0.848, 300.269, 68.156)" fill="#fff"/>
      <path id="Subtraction_58" data-name="Subtraction 58" d="M5.586,4.985A3.883,3.883,0,0,0,5,4.624a4.457,4.457,0,0,0-.673-.274,5.117,5.117,0,0,0-1.548-.234,5.139,5.139,0,0,0-1.512.223A4.166,4.166,0,0,0,0,4.971,4.793,4.793,0,0,0,.753,3.03,4.4,4.4,0,0,0,.171,0c.1.065.2.128.311.187A4.6,4.6,0,0,0,1.2.5,5.119,5.119,0,0,0,2.844.764,5.122,5.122,0,0,0,4.49.5,4.6,4.6,0,0,0,5.205.187C5.252.161,5.3.132,5.356.1a4.537,4.537,0,0,0-.4.984,4.851,4.851,0,0,0-.123,2,4.589,4.589,0,0,0,.207.837,4.333,4.333,0,0,0,.348.753c.061.1.128.208.2.306Z" transform="matrix(0.848, 0.53, -0.53, 0.848, 279.269, 448.156)" fill="#fff"/>
    </g>
    <g id="planet-eth" transform="translate(-46 -60.831)">
      <path id="Subtraction_42" data-name="Subtraction 42" d="M75,169.831a28.91,28.91,0,1,1,11.288-2.279A28.819,28.819,0,0,1,75,169.831Zm-9.11-26.013h0l8.675,12.007,8.68-12.009-8.68,5.036Zm8.674-5.489L65.889,142.2l8.675,5.036,8.674-5.036-8.674-3.874Zm0,0h0l8.674,3.875-8.674-14.138L65.889,142.2l8.675-3.875Z" transform="translate(141 229)" fill="#77c4bf"/>
      <g transform="matrix(1, 0, 0, 1, 121, 269.83)" filter="url(#Subtraction_37)">
        <path id="Subtraction_37-3" data-name="Subtraction 37" d="M57.461,27.473a212.615,212.615,0,0,1-22.366-1.136,133.827,133.827,0,0,1-18.265-3.1,47.44,47.44,0,0,1-12.315-4.6C1.519,16.861,0,14.968,0,13.016S1.519,9.171,4.515,7.388a47.44,47.44,0,0,1,12.315-4.6A130.653,130.653,0,0,1,33.611-.142a27.579,27.579,0,0,0,1.546,2.284A106.515,106.515,0,0,0,22.6,4.474,40.3,40.3,0,0,0,12.03,8.481c-2.571,1.553-3.875,3.2-3.875,4.906s1.3,3.352,3.875,4.906A40.338,40.338,0,0,0,22.6,22.3,113.146,113.146,0,0,0,38.269,25a179.516,179.516,0,0,0,19.192.991A179.516,179.516,0,0,0,76.652,25a113.146,113.146,0,0,0,15.673-2.7,40.338,40.338,0,0,0,10.566-4.007c2.571-1.554,3.875-3.2,3.875-4.906s-1.3-3.353-3.875-4.906A40.3,40.3,0,0,0,92.325,4.474,107.98,107.98,0,0,0,79.086,2.056c.542-.727,1.057-1.492,1.529-2.276A132.139,132.139,0,0,1,98.091,2.793a47.44,47.44,0,0,1,12.315,4.6c3,1.783,4.515,3.676,4.515,5.628s-1.519,3.846-4.515,5.628a47.44,47.44,0,0,1-12.315,4.6,133.827,133.827,0,0,1-18.265,3.1A212.615,212.615,0,0,1,57.461,27.473Z" transform="translate(38 83.7)" fill="#fff"/>
      </g>
      <path id="Subtraction_38" data-name="Subtraction 38" d="M28.766,57.831A28.84,28.84,0,0,1,7.559,48.573H49.972a28.838,28.838,0,0,1-21.206,9.258ZM54.618,15.95H2.913a28.925,28.925,0,0,1,51.705,0Z" transform="translate(187.324 341)" fill="#77c4bf"/>
      <path id="Path_10" data-name="Path 10" d="M238.088,346.915s16.36.924,20.229,15.335" transform="translate(-20.192 -2.047)" fill="none" stroke="#fff" stroke-linecap="round" stroke-width="3"/>
    </g>
    <g id="planet-ada" transform="translate(104 259.169)">
      <path id="Subtraction_41" data-name="Subtraction 41" d="M-56.5-113.169A47.2,47.2,0,0,1-74.989-116.9a47.342,47.342,0,0,1-15.1-10.18,47.341,47.341,0,0,1-10.18-15.1A47.2,47.2,0,0,1-104-160.669a47.2,47.2,0,0,1,3.733-18.489,47.343,47.343,0,0,1,10.18-15.1,47.343,47.343,0,0,1,15.1-10.18A47.2,47.2,0,0,1-56.5-208.169a47.2,47.2,0,0,1,18.489,3.733,47.342,47.342,0,0,1,15.1,10.18,47.342,47.342,0,0,1,10.18,15.1A47.2,47.2,0,0,1-9-160.669a47.2,47.2,0,0,1-3.733,18.489,47.341,47.341,0,0,1-10.18,15.1,47.341,47.341,0,0,1-15.1,10.18A47.2,47.2,0,0,1-56.5-113.169Zm-.49-30.667v0a.918.918,0,0,0,.118.861,1.054,1.054,0,0,0,.851.482.952.952,0,0,0,.1-.005h.017a1.221,1.221,0,0,0,.877-.519l-.267,0-.267,0h0v-.006a1.182,1.182,0,0,0-.565-.891.974.974,0,0,0-.511-.139,1.027,1.027,0,0,0-1.021.747l.668-.532Zm-8.657-.724a.989.989,0,0,0-.848.763.972.972,0,0,0,.9.9.758.758,0,0,0,.425-.133.773.773,0,0,0,.37-.868.762.762,0,0,0-.685-.641A.778.778,0,0,0-65.647-144.56Zm18.117-.085a1.031,1.031,0,0,0-.732.6.752.752,0,0,0,.076.722.769.769,0,0,0,.685.37.822.822,0,0,0,.853-.7c.1-.516-.37-.889-.882-.99Zm-15.725-4.422a1.079,1.079,0,0,0-.5.12,1.421,1.421,0,0,0-.8,1.365c.119.309.473,1.029,1.183,1.043a1.159,1.159,0,0,0,.166.012,1.276,1.276,0,0,0,.908-.4,1.157,1.157,0,0,0,.341-.844,1.126,1.126,0,0,0-.315-.856A1.362,1.362,0,0,0-63.255-149.067ZM-49.9-149.1a1.123,1.123,0,0,0-.592.164,1.219,1.219,0,0,0-.654,1.029,1.2,1.2,0,0,0,.5,1.094,1.128,1.128,0,0,0,.737.263,1.416,1.416,0,0,0,.992-.42,1.121,1.121,0,0,0,.333-.809,1.141,1.141,0,0,0-.315-.871A1.39,1.39,0,0,0-49.9-149.1Zm-6.782-1.46a1.316,1.316,0,0,0-.526.108,1.4,1.4,0,0,0-.946,1.234,1.4,1.4,0,0,0,.664,1.4,1.313,1.313,0,0,0,.783.25,1.643,1.643,0,0,0,1.175-.513,1.287,1.287,0,0,0,.365-.963,1.3,1.3,0,0,0-.358-1A1.6,1.6,0,0,0-56.682-150.558Zm-14.155-1.567a.913.913,0,0,0-.508.151,1,1,0,0,0-.527.878,1,1,0,0,0,.48.906.978.978,0,0,0,.548.164,1.076,1.076,0,0,0,1.083-.9.935.935,0,0,0-.212-.783A1.152,1.152,0,0,0-70.838-152.125Zm28.487-.049a1.047,1.047,0,0,0-.88.533.935.935,0,0,0-.044.93,1.02,1.02,0,0,0,.98.626.98.98,0,0,0,.775-.349,1.207,1.207,0,0,0,.214-1.121l-.009-.069-.036-.037a1.249,1.249,0,0,0-.84-.5H-42.2A.9.9,0,0,0-42.35-152.174ZM-59.58-156.6a2.3,2.3,0,0,0-.567.071,2.573,2.573,0,0,0-2,2.432,2.534,2.534,0,0,0,2.092,2.507,2.228,2.228,0,0,0,.5.057,2.587,2.587,0,0,0,1.864-.84,2.4,2.4,0,0,0,.678-1.774A2.592,2.592,0,0,0-59.58-156.6Zm5.406.067a2.565,2.565,0,0,0-1.877,1.864,2.359,2.359,0,0,0,.333,1.948,2.478,2.478,0,0,0,1.743,1.129,2.284,2.284,0,0,0,.439.043,2.587,2.587,0,0,0,1.857-.829A2.361,2.361,0,0,0-51-154.128a2.348,2.348,0,0,0-.706-1.683,2.639,2.639,0,0,0-1.86-.8,2.307,2.307,0,0,0-.611.082Zm-11.3.924a1.326,1.326,0,0,0-.218.018,1.466,1.466,0,0,0-1.215.993,1.371,1.371,0,0,0,.275,1.461,1.413,1.413,0,0,0,1.117.507,1.479,1.479,0,0,0,1.447-.986,1.332,1.332,0,0,0-.142-1.275A1.548,1.548,0,0,0-65.475-155.607Zm17.815-.035a1.334,1.334,0,0,0-.511.1,1.416,1.416,0,0,0-.964,1.251,1.4,1.4,0,0,0,.679,1.4,1.327,1.327,0,0,0,.769.238,1.651,1.651,0,0,0,1.161-.5,1.322,1.322,0,0,0,.388-.964,1.341,1.341,0,0,0-.376-1.013A1.6,1.6,0,0,0-47.66-155.643Zm3.133-3.384-1.36,1.508a1.713,1.713,0,0,0,.725.928,1.177,1.177,0,0,0,.566.14,1.391,1.391,0,0,0,1-.432,1.1,1.1,0,0,0,.306-.824,1.362,1.362,0,0,0-1.236-1.32h0Zm-18.735-2.6h0a2.523,2.523,0,0,0-1.679,1.437,2.348,2.348,0,0,0,.029,2.083,2.532,2.532,0,0,0,2.352,1.429,2.4,2.4,0,0,0,1.634-.6,2.511,2.511,0,0,0,.57-3.136,2.576,2.576,0,0,0-2.259-1.295,2.465,2.465,0,0,0-.646.085Zm12.676-.1a2.654,2.654,0,0,0-.721.1,2.5,2.5,0,0,0-1.633,1.493,2.371,2.371,0,0,0,.12,2.123,2.551,2.551,0,0,0,2.288,1.317,2.443,2.443,0,0,0,1.4-.42,2.469,2.469,0,0,0,1.084-1.6,2.4,2.4,0,0,0-.349-1.846A2.531,2.531,0,0,0-50.586-161.727Zm-19.376,1.28a1.133,1.133,0,0,0-.4.071,1.22,1.22,0,0,0-.845.956,1.2,1.2,0,0,0,.394,1.189,1.168,1.168,0,0,0,.834.328,1.272,1.272,0,0,0,1.24-.863,1.125,1.125,0,0,0-.128-1.067A1.352,1.352,0,0,0-69.962-160.447Zm-5.08.528a.874.874,0,0,0-.486.6.744.744,0,0,0,.151.658.744.744,0,0,0,.638.325.808.808,0,0,0,.848-.715.72.72,0,0,0-.152-.61.884.884,0,0,0-.68-.323.8.8,0,0,0-.319.065Zm36.555,1.488h0a.7.7,0,0,0,.1.007.8.8,0,0,0,.665-.406.726.726,0,0,0,.043-.718.816.816,0,0,0-.781-.514.747.747,0,0,0-.43.129.79.79,0,0,0-.354.912.722.722,0,0,0,.691.593q.034,0,.068,0Zm-21.132-8.394a2.577,2.577,0,0,0-1.078.232,2.482,2.482,0,0,0-1.326,1.481,2.418,2.418,0,0,0,.132,1.932,2.563,2.563,0,0,0,2.318,1.388,2.437,2.437,0,0,0,1.188-.3,2.482,2.482,0,0,0,1.246-1.518,2.383,2.383,0,0,0-.189-1.874A2.51,2.51,0,0,0-59.62-166.824Zm5.223.1h0a2.49,2.49,0,0,0-1.517,1.347,2.369,2.369,0,0,0-.07,1.928,2.556,2.556,0,0,0,2.442,1.641,2.391,2.391,0,0,0,1.234-.333,2.446,2.446,0,0,0,1.212-1.606,2.417,2.417,0,0,0-.338-1.959,2.628,2.628,0,0,0-2.166-1.152,2.377,2.377,0,0,0-.8.134Zm6.7.94a1.328,1.328,0,0,0-.668.175,1.434,1.434,0,0,0-.8,1.265,1.417,1.417,0,0,0,.691,1.31,1.331,1.331,0,0,0,.773.241,1.644,1.644,0,0,0,1.171-.512,1.331,1.331,0,0,0,.38-.992,1.348,1.348,0,0,0-.395-.988A1.63,1.63,0,0,0-47.7-165.78Zm-20.808-.171a1.4,1.4,0,0,0,.315,1.161,1.461,1.461,0,0,0,1.123.554c.033,0,.069,0,.111,0h.006a1.6,1.6,0,0,0,1.491-1.529,1.605,1.605,0,0,0-1.544,1.3l-1.5-1.479h0Zm-2.833-2.234a.99.99,0,0,0-.558.826,1,1,0,0,0,.387.921,1.008,1.008,0,0,0,.638.218,1.048,1.048,0,0,0,1.044-.762.911.911,0,0,0-.135-.847,1.133,1.133,0,0,0-.9-.488.9.9,0,0,0-.474.133Zm28.969-.188a.917.917,0,0,0-.562.186,1,1,0,0,0-.46.927,1,1,0,0,0,.576.87.9.9,0,0,0,.46.122,1.137,1.137,0,0,0,.811-.358.908.908,0,0,0,.26-.678.893.893,0,0,0-.241-.691A1.157,1.157,0,0,0-42.374-168.373Zm-14.2-2.484a1.594,1.594,0,0,0-1.536,1.482,1.6,1.6,0,0,0,1.015,1.489l.164.012c.124.01.25.02.375.02a1.193,1.193,0,0,0,.592-.129,1.491,1.491,0,0,0,.808-.913,1.376,1.376,0,0,0-.1-1.12,1.636,1.636,0,0,0-1.319-.842Zm6.658-1a1.225,1.225,0,0,0-1.173.731,1.154,1.154,0,0,0,.064,1.146,1.422,1.422,0,0,0,1.18.676,1.318,1.318,0,0,0,.228-.021,1.5,1.5,0,0,0,.918-.876,1.12,1.12,0,0,0-.07-.981A1.225,1.225,0,0,0-49.92-171.853Zm-13.4.007a1.109,1.109,0,0,0-.595.168,1.223,1.223,0,0,0-.655,1.015,1.19,1.19,0,0,0,.474,1.075,1.136,1.136,0,0,0,.767.284,1.309,1.309,0,0,0,1.323-1.158,1.137,1.137,0,0,0-.29-.907A1.385,1.385,0,0,0-63.319-171.846Zm-2.359-3.606a.688.688,0,0,0-.26.05.784.784,0,0,0-.566.746.761.761,0,0,0,.468.78.723.723,0,0,0,.348.086.891.891,0,0,0,.647-.288.7.7,0,0,0,.19-.535.712.712,0,0,0-.2-.548A.872.872,0,0,0-65.679-175.452Zm18.133-.04a.759.759,0,0,0-.328.078.764.764,0,0,0-.5.831.768.768,0,0,0,.655.721.815.815,0,0,0,.2.025.963.963,0,0,0,.859-.784A1,1,0,0,0-47.546-175.491Zm-9.5-.855a1.008,1.008,0,0,0-.608.768,1.01,1.01,0,0,0,.287.939,1.009,1.009,0,0,0,.73.292,1.046,1.046,0,0,0,.989-.626.908.908,0,0,0-.038-.914,1.129,1.129,0,0,0-.939-.56.91.91,0,0,0-.42.1Z" transform="translate(309 549)" fill="#2362c8"/>
      <g transform="matrix(1, 0, 0, 1, -29, -50.17)" filter="url(#Subtraction_37-2)">
        <path id="Subtraction_37-4" data-name="Subtraction 37" d="M94.116,45a348.225,348.225,0,0,1-36.634-1.86,219.321,219.321,0,0,1-29.917-5.076C18.923,35.89,12.137,33.357,7.4,30.537,2.488,27.617,0,24.515,0,21.319s2.488-6.3,7.4-9.218c4.74-2.82,11.526-5.352,20.17-7.527A207.045,207.045,0,0,1,51.935.143c.542,1.319,1.156,2.629,1.826,3.895a165.988,165.988,0,0,0-16.75,3.29c-7.417,1.9-13.24,4.1-17.306,6.562-4.211,2.545-6.347,5.248-6.347,8.035s2.135,5.491,6.347,8.037c4.066,2.458,9.889,4.666,17.306,6.562a185.61,185.61,0,0,0,25.67,4.424,293.922,293.922,0,0,0,31.435,1.622,293.923,293.923,0,0,0,31.435-1.622,185.611,185.611,0,0,0,25.67-4.424c7.417-1.9,13.24-4.1,17.306-6.562,4.211-2.546,6.347-5.25,6.347-8.037s-2.135-5.491-6.347-8.035c-4.066-2.459-9.889-4.667-17.306-6.562a168.523,168.523,0,0,0-17.878-3.454c.656-1.253,1.261-2.556,1.8-3.875a209.588,209.588,0,0,1,25.525,4.574c8.644,2.175,15.43,4.708,20.17,7.527,4.908,2.919,7.4,6.021,7.4,9.218s-2.488,6.3-7.4,9.218c-4.741,2.82-11.527,5.352-20.17,7.526a219.321,219.321,0,0,1-29.917,5.076A348.225,348.225,0,0,1,94.116,45Z" transform="translate(188 416.71)" fill="#fff"/>
      </g>
      <path id="Subtraction_38-2" data-name="Subtraction 38" d="M47.116,94.724a47.172,47.172,0,0,1-30.09-10.786H77.206A47.172,47.172,0,0,1,47.116,94.724ZM91.39,30.5H2.842a47.389,47.389,0,0,1,88.547,0Z" transform="translate(205.393 341.108)" fill="#2362c8"/>
      <path id="Path_10-2" data-name="Path 10" d="M238.088,346.915s26.8,1.513,33.133,25.117" transform="translate(17.743 0.805)" fill="none" stroke="rgba(255,255,255,0.96)" stroke-linecap="round" stroke-width="5"/>
    </g>
    <g id="planet-link" transform="translate(385 209.169)">
      <path id="Subtraction_40" data-name="Subtraction 40" d="M-356-100.169a28.818,28.818,0,0,1-11.288-2.279,28.9,28.9,0,0,1-9.218-6.215,28.9,28.9,0,0,1-6.215-9.218A28.818,28.818,0,0,1-385-129.169a28.818,28.818,0,0,1,2.279-11.288,28.9,28.9,0,0,1,6.215-9.218,28.9,28.9,0,0,1,9.218-6.215A28.818,28.818,0,0,1-356-158.169a28.82,28.82,0,0,1,11.288,2.279,28.9,28.9,0,0,1,9.218,6.215,28.9,28.9,0,0,1,6.215,9.218A28.818,28.818,0,0,1-327-129.169a28.818,28.818,0,0,1-2.279,11.288,28.9,28.9,0,0,1-6.215,9.218,28.9,28.9,0,0,1-9.218,6.215A28.82,28.82,0,0,1-356-100.169Zm.4-41.833h0l-2.413,1.416-6.576,3.877L-367-135.293v13.416l2.414,1.416,6.637,3.877,2.413,1.416,2.414-1.416,6.517-3.877,2.414-1.416v-13.416l-2.414-1.416-6.577-3.877L-355.6-142Zm0,21.172h0l-6.576-3.877v-7.755l6.576-3.877,6.577,3.877v7.755l-6.577,3.877Z" transform="translate(572 499)" fill="#fcef47"/>
      <g transform="matrix(1, 0, 0, 1, -310, -0.17)" filter="url(#Subtraction_39)">
        <path id="Subtraction_39-2" data-name="Subtraction 39" d="M57.461,62.171a212.615,212.615,0,0,1-22.366-1.136,133.828,133.828,0,0,1-18.265-3.1,47.441,47.441,0,0,1-12.315-4.6C1.519,51.559,0,49.666,0,47.714s1.519-3.845,4.515-5.628a47.44,47.44,0,0,1,12.315-4.6,133.827,133.827,0,0,1,18.265-3.1l.452-.047a27.677,27.677,0,0,0,1.947,2.212,111.508,111.508,0,0,0-14.9,2.615A40.3,40.3,0,0,0,12.03,43.179c-2.571,1.553-3.875,3.2-3.875,4.906s1.3,3.352,3.875,4.906A40.338,40.338,0,0,0,22.6,57a113.147,113.147,0,0,0,15.673,2.7,179.516,179.516,0,0,0,19.192.991A179.516,179.516,0,0,0,76.652,59.7,113.147,113.147,0,0,0,92.325,57a40.337,40.337,0,0,0,10.566-4.007c2.571-1.554,3.875-3.2,3.875-4.906s-1.3-3.353-3.875-4.906a40.3,40.3,0,0,0-10.566-4.007,112.919,112.919,0,0,0-15.567-2.689,27.7,27.7,0,0,0,1.93-2.208c.388.039.771.078,1.139.117a133.827,133.827,0,0,1,18.265,3.1,47.44,47.44,0,0,1,12.315,4.6c3,1.783,4.515,3.676,4.515,5.628s-1.519,3.846-4.515,5.628a47.441,47.441,0,0,1-12.315,4.6,133.828,133.828,0,0,1-18.265,3.1A212.614,212.614,0,0,1,57.461,62.171Z" transform="translate(469 319)" fill="#fff"/>
      </g>
      <path id="Subtraction_38-3" data-name="Subtraction 38" d="M28.766,57.831A28.929,28.929,0,0,1,20.3,56.573H37.229A28.929,28.929,0,0,1,28.766,57.831ZM54.618,15.95H2.913a28.925,28.925,0,0,1,51.705,0Z" transform="translate(187.324 341)" fill="#fcef47"/>
      <path id="Path_10-3" data-name="Path 10" d="M238.088,346.915s16.36.924,20.229,15.335" transform="translate(-20.192 -2.047)" fill="none" stroke="#fff" stroke-linecap="round" stroke-width="3"/>
    </g>
    <g id="rocket" transform="matrix(0.985, 0.174, -0.174, 0.985, 128.731, 538.301)">
      <g transform="matrix(0.98, -0.17, 0.17, 0.98, -110.1, -314.97)" filter="url(#body)">
        <path id="body-2" data-name="body" d="M-107.01-433.515l-18.33-18.141,6.992-8.882c13.228-17.007,31.748-29.29,48.945-32.693a118.961,118.961,0,0,1,16.251-1.89c7.748-.189,7.937,0,7.937,6.236,0,25.323-12.472,49.323-34.772,66.708l-8.881,6.992Z" transform="matrix(0.98, 0.17, -0.17, 0.98, 141.36, 782.64)" fill="#d2f5ff"/>
      </g>
      <g id="chasis">
        <g transform="matrix(0.98, -0.17, 0.17, 0.98, -110.1, -314.97)" filter="url(#Union_2)">
          <path id="Union_2-2" data-name="Union 2" d="M-89.8-479.122c2.137-9.976,3.087-11.4,6.65-10.212a9.037,9.037,0,0,0,3.433-.215c-3.364-.273-6.759-3.348-16.033-12.3-8.984-8.835-12.228-12.123-12.766-15.429-.578,2.453-.776,4.239-.441,4.8,1.643,2.581-.469,3.755-10.091,5.867l-7.745,1.642,8.917-17.835c6.1-12.2,10.092-17.836,12.908-17.836,4.605,0,5.1-1.121,1.16,9.3,2.384.089,38.244,36.642,36.862,37.562q-.022.022-.052.047c11.221-4.6,11.635-4.285,11.635.365,0,2.85-5.7,6.888-18.05,13.063l-18.05,9.025Z" transform="matrix(0.98, 0.17, -0.17, 0.98, 100.42, 860.64)" fill="#37acac"/>
        </g>
        <path id="Rectangle_13" data-name="Rectangle 13" d="M0,0H8a4,4,0,0,1,4,4V18a4,4,0,0,1-4,4H0a0,0,0,0,1,0,0V0A0,0,0,0,1,0,0Z" transform="translate(22.692 16.419) rotate(-45)" fill="#37acac"/>
      </g>
      <g id="fire" transform="translate(5.457 -84.227)">
        <path id="Union_1" data-name="Union 1" d="M-119.666-336.113c-.579-.351.594-7.952,2.288-16.569-7.039,4.182-13.034,7.353-13.51,6.877-.393-.472,2.521-6.118,6.356-12.834-8.456,1.94-15.732,3.237-16.051,2.61-.548-1.37,26.283-25.239,31.463-27.728a9.181,9.181,0,0,1,5.816-1.01,11.221,11.221,0,0,1,8.131,3.057,8.766,8.766,0,0,1,3.307,7.167c.245,2.695-.722,5.824-2.93,9.081-6.5,9.725-23.184,29.364-24.809,29.362A.14.14,0,0,1-119.666-336.113Z" transform="translate(118.753 490.937)" fill="url(#linear-gradient-2)"/>
      </g>
      <g id="btc" transform="translate(44.089 -18.64) rotate(-58)">
        <g transform="matrix(0.67, 0.74, -0.74, 0.67, 169.59, -287.79)" filter="url(#Path_20)">
          <path id="Path_20-2" data-name="Path 20" d="M35.621,20.653c.574-3.83-2.344-5.889-6.331-7.263L30.584,8.2l-3.157-.786-1.261,5.052c-.829-.208-1.681-.4-2.53-.6l1.27-5.085L21.748,6l-1.294,5.187c-.687-.157-1.363-.311-2.017-.475l0-.016L14.086,9.608l-.84,3.373s2.344.537,2.295.57a1.681,1.681,0,0,1,1.471,1.838L15.538,21.3a2.809,2.809,0,0,1,.329.1l-.334-.082L13.468,29.6a1.152,1.152,0,0,1-1.449.749c.033.046-2.295-.572-2.295-.572L8.157,33.393l4.111,1.025c.764.192,1.513.393,2.249.581l-1.306,5.247,3.155.786,1.294-5.189c.862.232,1.7.448,2.518.652l-1.29,5.167,3.157.786,1.306-5.236c5.386,1.019,9.435.608,11.14-4.263,1.374-3.921-.068-6.185-2.9-7.659a5.034,5.034,0,0,0,4.032-4.637ZM28.4,30.771c-.974,3.923-7.579,1.8-9.72,1.27l1.736-6.952C22.561,25.624,29.426,26.682,28.4,30.771ZM29.382,20.6c-.89,3.568-6.386,1.754-8.167,1.31l1.571-6.3C24.568,16.047,30.31,16.875,29.382,20.6Z" transform="translate(104.05 317.9) rotate(-48)" fill="#f79325" stroke="#ac5a00" stroke-width="1"/>
        </g>
      </g>
    </g>
    <g id="moon" transform="translate(448.053 305.74)">
      <path id="Subtraction_3" data-name="Subtraction 3" d="M181.6,238.568h0L0,125.091,78.165,0,181.6,64.635V238.567h0Z" transform="translate(45.345 18.333)" fill="url(#linear-gradient-3)"/>
      <g id="moon-body">
        <circle id="Ellipse_1" data-name="Ellipse 1" cx="74.5" cy="74.5" r="74.5" transform="translate(-0.053 0.26)" fill="#d2f5ff"/>
        <path id="Subtraction_1" data-name="Subtraction 1" d="M60.8,145.83A74.661,74.661,0,0,1,0,114.481a74.628,74.628,0,0,0,22.4,3.42,75.174,75.174,0,0,0,15.04-1.516,74.216,74.216,0,0,0,26.684-11.229A75.036,75.036,0,0,0,84.279,85a74.629,74.629,0,0,0,6.88-12.676,74.25,74.25,0,0,0,4.348-14.008,75.174,75.174,0,0,0,1.516-15.04,74.566,74.566,0,0,0-3.648-23.11A74.307,74.307,0,0,0,83.2,0a74.549,74.549,0,0,1,52.226,71.2,75.175,75.175,0,0,1-1.516,15.04,74.215,74.215,0,0,1-11.229,26.684A74.843,74.843,0,0,1,89.85,139.966a74.248,74.248,0,0,1-14.008,4.348A75.176,75.176,0,0,1,60.8,145.83Z" transform="translate(13.822 3.42)" fill="#bedce5"/>
      </g>
      <g id="moon-holes" transform="translate(7.855 6.982)">
        <g id="Group_1" data-name="Group 1" transform="translate(52.368 49.75)">
          <circle id="Ellipse_6" data-name="Ellipse 6" cx="13" cy="13" r="13" transform="translate(-0.276 -0.473)" fill="#a7cfde"/>
          <path id="Subtraction_2" data-name="Subtraction 2" d="M3.639,21.274A12.49,12.49,0,0,1,.976,17.316a12.407,12.407,0,0,1-.724-2.337,12.591,12.591,0,0,1,0-5.022A12.4,12.4,0,0,1,2.13,5.5,12.506,12.506,0,0,1,7.616.98,12.407,12.407,0,0,1,9.957.253a12.562,12.562,0,0,1,6.3.331A12.5,12.5,0,0,1,24.08,7.912,12.49,12.49,0,0,0,20.112,5.23,12.407,12.407,0,0,0,17.768,4.5a12.591,12.591,0,0,0-5.031,0A12.4,12.4,0,0,0,8.278,6.376a12.506,12.506,0,0,0-4.518,5.486A12.407,12.407,0,0,0,3.034,14.2a12.562,12.562,0,0,0-.253,2.513,12.413,12.413,0,0,0,.859,4.558Z" transform="translate(0 0.372)" fill="#9ec3d3"/>
        </g>
        <g id="Group_5" data-name="Group 5" transform="translate(13.965 69.676)">
          <circle id="Ellipse_6-2" data-name="Ellipse 6" cx="7" cy="7" r="7" transform="translate(0.127 0.601)" fill="#a7cfde"/>
          <path id="Subtraction_2-2" data-name="Subtraction 2" d="M2.06,12.039A7.068,7.068,0,0,1,.553,9.8a7.021,7.021,0,0,1-.41-1.322,7.125,7.125,0,0,1,0-2.842A7.018,7.018,0,0,1,1.205,3.111,7.077,7.077,0,0,1,4.31.555,7.021,7.021,0,0,1,5.634.143,7.109,7.109,0,0,1,9.2.331a7.075,7.075,0,0,1,4.428,4.146A7.068,7.068,0,0,0,11.381,2.96a7.021,7.021,0,0,0-1.327-.413,7.125,7.125,0,0,0-2.847,0A7.018,7.018,0,0,0,4.685,3.608a7.077,7.077,0,0,0-2.557,3.1,7.021,7.021,0,0,0-.411,1.325A7.109,7.109,0,0,0,1.573,9.46a7.024,7.024,0,0,0,.486,2.579Z" transform="translate(0 0)" fill="#9ec3d3"/>
        </g>
        <g id="Group_6" data-name="Group 6" transform="translate(45.386 94.115)">
          <circle id="Ellipse_6-3" data-name="Ellipse 6" cx="7" cy="7" r="7" transform="translate(-0.294 0.162)" fill="#a7cfde"/>
          <path id="Subtraction_2-3" data-name="Subtraction 2" d="M2.06,12.039A7.068,7.068,0,0,1,.553,9.8a7.021,7.021,0,0,1-.41-1.322,7.125,7.125,0,0,1,0-2.842A7.018,7.018,0,0,1,1.205,3.111,7.077,7.077,0,0,1,4.31.555,7.021,7.021,0,0,1,5.634.143,7.109,7.109,0,0,1,9.2.331a7.075,7.075,0,0,1,4.428,4.146A7.068,7.068,0,0,0,11.381,2.96a7.021,7.021,0,0,0-1.327-.413,7.125,7.125,0,0,0-2.847,0A7.018,7.018,0,0,0,4.685,3.608a7.077,7.077,0,0,0-2.557,3.1,7.021,7.021,0,0,0-.411,1.325A7.109,7.109,0,0,0,1.573,9.46a7.024,7.024,0,0,0,.486,2.579Z" transform="translate(0 0)" fill="#9ec3d3"/>
        </g>
        <g id="Group_7" data-name="Group 7" transform="translate(95.136 19.926)">
          <circle id="Ellipse_6-4" data-name="Ellipse 6" cx="7" cy="7" r="7" transform="translate(-0.044 0.351)" fill="#a7cfde"/>
          <path id="Subtraction_2-4" data-name="Subtraction 2" d="M2.06,12.039A7.068,7.068,0,0,1,.553,9.8a7.021,7.021,0,0,1-.41-1.322,7.125,7.125,0,0,1,0-2.842A7.018,7.018,0,0,1,1.205,3.111,7.077,7.077,0,0,1,4.31.555,7.021,7.021,0,0,1,5.634.143,7.109,7.109,0,0,1,9.2.331a7.075,7.075,0,0,1,4.428,4.146A7.068,7.068,0,0,0,11.381,2.96a7.021,7.021,0,0,0-1.327-.413,7.125,7.125,0,0,0-2.847,0A7.018,7.018,0,0,0,4.685,3.608a7.077,7.077,0,0,0-2.557,3.1,7.021,7.021,0,0,0-.411,1.325A7.109,7.109,0,0,0,1.573,9.46a7.024,7.024,0,0,0,.486,2.579Z" transform="translate(0 0)" fill="#9ec3d3"/>
        </g>
        <g id="Group_8" data-name="Group 8" transform="translate(95.136 101.097)">
          <circle id="Ellipse_6-5" data-name="Ellipse 6" cx="7" cy="7" r="7" transform="translate(-0.044 0.18)" fill="#a7cfde"/>
          <path id="Subtraction_2-5" data-name="Subtraction 2" d="M2.06,12.039A7.068,7.068,0,0,1,.553,9.8a7.021,7.021,0,0,1-.41-1.322,7.125,7.125,0,0,1,0-2.842A7.018,7.018,0,0,1,1.205,3.111,7.077,7.077,0,0,1,4.31.555,7.021,7.021,0,0,1,5.634.143,7.109,7.109,0,0,1,9.2.331a7.075,7.075,0,0,1,4.428,4.146A7.068,7.068,0,0,0,11.381,2.96a7.021,7.021,0,0,0-1.327-.413,7.125,7.125,0,0,0-2.847,0A7.018,7.018,0,0,0,4.685,3.608a7.077,7.077,0,0,0-2.557,3.1,7.021,7.021,0,0,0-.411,1.325A7.109,7.109,0,0,0,1.573,9.46a7.024,7.024,0,0,0,.486,2.579Z" transform="translate(0 0)" fill="#9ec3d3"/>
        </g>
        <g id="Group_9" data-name="Group 9" transform="translate(112.592 62.701)">
          <ellipse id="Ellipse_6-6" data-name="Ellipse 6" cx="4.5" cy="4" rx="4.5" ry="4" transform="translate(-0.5 0.576)" fill="#a7cfde"/>
          <path id="Subtraction_2-6" data-name="Subtraction 2" d="M1.294,7.565A4.441,4.441,0,0,1,.347,6.158,4.412,4.412,0,0,1,.09,5.326a4.478,4.478,0,0,1,0-1.786A4.41,4.41,0,0,1,.757,1.955,4.447,4.447,0,0,1,2.708.348,4.412,4.412,0,0,1,3.541.09,4.467,4.467,0,0,1,5.78.208,4.446,4.446,0,0,1,8.563,2.813,4.442,4.442,0,0,0,7.152,1.86,4.412,4.412,0,0,0,6.318,1.6a4.478,4.478,0,0,0-1.789,0,4.41,4.41,0,0,0-1.586.667A4.447,4.447,0,0,0,1.337,4.219a4.412,4.412,0,0,0-.258.832,4.467,4.467,0,0,0-.09.894,4.414,4.414,0,0,0,.306,1.621Z" transform="translate(0)" fill="#9ec3d3"/>
        </g>
        <g id="Group_2" data-name="Group 2" transform="translate(61.097)">
          <circle id="Ellipse_6-7" data-name="Ellipse 6" cx="6" cy="6" r="6" transform="translate(-0.004 0.277)" fill="#a7cfde"/>
          <path id="Subtraction_2-7" data-name="Subtraction 2" d="M1.735,10.143A5.954,5.954,0,0,1,.466,8.255,5.915,5.915,0,0,1,.12,7.141a6,6,0,0,1,0-2.394,5.912,5.912,0,0,1,.895-2.126A5.962,5.962,0,0,1,3.631.467,5.915,5.915,0,0,1,4.747.121a5.989,5.989,0,0,1,3,.158A5.96,5.96,0,0,1,11.48,3.772,5.955,5.955,0,0,0,9.589,2.493a5.915,5.915,0,0,0-1.118-.348,6,6,0,0,0-2.4,0,5.912,5.912,0,0,0-2.126.895A5.962,5.962,0,0,0,1.793,5.656a5.915,5.915,0,0,0-.346,1.116,5.989,5.989,0,0,0-.121,1.2,5.918,5.918,0,0,0,.41,2.173Z" transform="translate(0 0.329)" fill="#9ec3d3"/>
        </g>
        <g id="Group_3" data-name="Group 3" transform="translate(26.184 20.075)">
          <circle id="Ellipse_6-8" data-name="Ellipse 6" cx="4.5" cy="4.5" r="4.5" transform="translate(-0.092 0.203)" fill="#a7cfde"/>
          <path id="Subtraction_2-8" data-name="Subtraction 2" d="M1.253,7.325A4.3,4.3,0,0,1,.336,5.962a4.272,4.272,0,0,1-.249-.8,4.336,4.336,0,0,1,0-1.729A4.27,4.27,0,0,1,.733,1.893,4.306,4.306,0,0,1,2.622.337a4.272,4.272,0,0,1,.806-.25A4.325,4.325,0,0,1,5.6.2,4.3,4.3,0,0,1,8.291,2.724,4.3,4.3,0,0,0,6.925,1.8a4.272,4.272,0,0,0-.807-.251,4.335,4.335,0,0,0-1.732,0A4.27,4.27,0,0,0,2.85,2.2,4.306,4.306,0,0,0,1.295,4.085a4.272,4.272,0,0,0-.25.806,4.325,4.325,0,0,0-.087.865,4.274,4.274,0,0,0,.3,1.569Z" transform="translate(0 0.141)" fill="#9ec3d3"/>
        </g>
        <g id="Group_4" data-name="Group 4" transform="translate(0 41.895)">
          <circle id="Ellipse_6-9" data-name="Ellipse 6" cx="2" cy="2" r="2" transform="translate(0.092 0.382)" fill="#a7cfde"/>
          <path id="Subtraction_2-9" data-name="Subtraction 2" d="M.633,3.7A2.174,2.174,0,0,1,.17,3.013a2.159,2.159,0,0,1-.126-.407,2.191,2.191,0,0,1,0-.874A2.158,2.158,0,0,1,.371.957,2.176,2.176,0,0,1,1.325.171,2.159,2.159,0,0,1,1.733.044,2.186,2.186,0,0,1,2.829.1,2.176,2.176,0,0,1,4.191,1.377,2.174,2.174,0,0,0,3.5.91,2.159,2.159,0,0,0,3.092.783a2.191,2.191,0,0,0-.876,0,2.158,2.158,0,0,0-.776.327,2.177,2.177,0,0,0-.786.955,2.159,2.159,0,0,0-.126.407,2.186,2.186,0,0,0-.044.437,2.16,2.16,0,0,0,.15.793Z" transform="translate(0 0.024)" fill="#9ec3d3"/>
        </g>
        <g id="Group_10" data-name="Group 10" transform="translate(13.965 98.627)">
          <ellipse id="Ellipse_6-10" data-name="Ellipse 6" cx="2" cy="2.5" rx="2" ry="2.5" transform="translate(0.127 -0.35)" fill="#a7cfde"/>
          <path id="Subtraction_2-10" data-name="Subtraction 2" d="M.633,3.7A2.174,2.174,0,0,1,.17,3.013a2.159,2.159,0,0,1-.126-.407,2.191,2.191,0,0,1,0-.874A2.158,2.158,0,0,1,.371.957,2.176,2.176,0,0,1,1.325.171,2.159,2.159,0,0,1,1.733.044,2.186,2.186,0,0,1,2.829.1,2.176,2.176,0,0,1,4.191,1.377,2.174,2.174,0,0,0,3.5.91,2.159,2.159,0,0,0,3.092.783a2.191,2.191,0,0,0-.876,0,2.158,2.158,0,0,0-.776.327,2.177,2.177,0,0,0-.786.955,2.159,2.159,0,0,0-.126.407,2.186,2.186,0,0,0-.044.437,2.16,2.16,0,0,0,.15.793Z" transform="translate(0 0.024)" fill="#9ec3d3"/>
        </g>
        <g id="Group_11" data-name="Group 11" transform="translate(41.022 117.829)">
          <circle id="Ellipse_6-11" data-name="Ellipse 6" cx="2" cy="2" r="2" transform="translate(0.07 0.448)" fill="#a7cfde"/>
          <path id="Subtraction_2-11" data-name="Subtraction 2" d="M.633,3.7A2.174,2.174,0,0,1,.17,3.013a2.159,2.159,0,0,1-.126-.407,2.191,2.191,0,0,1,0-.874A2.158,2.158,0,0,1,.371.957,2.176,2.176,0,0,1,1.325.171,2.159,2.159,0,0,1,1.733.044,2.186,2.186,0,0,1,2.829.1,2.176,2.176,0,0,1,4.191,1.377,2.174,2.174,0,0,0,3.5.91,2.159,2.159,0,0,0,3.092.783a2.191,2.191,0,0,0-.876,0,2.158,2.158,0,0,0-.776.327,2.177,2.177,0,0,0-.786.955,2.159,2.159,0,0,0-.126.407,2.186,2.186,0,0,0-.044.437,2.16,2.16,0,0,0,.15.793Z" transform="translate(0 0.024)" fill="#9ec3d3"/>
        </g>
        <g id="Group_12" data-name="Group 12" transform="translate(127.43 44.513)">
          <circle id="Ellipse_6-12" data-name="Ellipse 6" cx="2.5" cy="2.5" r="2.5" transform="translate(-0.338 -0.236)" fill="#a7cfde"/>
          <path id="Subtraction_2-12" data-name="Subtraction 2" d="M.633,3.7A2.174,2.174,0,0,1,.17,3.013a2.159,2.159,0,0,1-.126-.407,2.191,2.191,0,0,1,0-.874A2.158,2.158,0,0,1,.371.957,2.176,2.176,0,0,1,1.325.171,2.159,2.159,0,0,1,1.733.044,2.186,2.186,0,0,1,2.829.1,2.176,2.176,0,0,1,4.191,1.377,2.174,2.174,0,0,0,3.5.91,2.159,2.159,0,0,0,3.092.783a2.191,2.191,0,0,0-.876,0,2.158,2.158,0,0,0-.776.327,2.177,2.177,0,0,0-.786.955,2.159,2.159,0,0,0-.126.407,2.186,2.186,0,0,0-.044.437,2.16,2.16,0,0,0,.15.793Z" transform="translate(0 0.024)" fill="#9ec3d3"/>
        </g>
        <g id="Group_13" data-name="Group 13" transform="translate(131.794 79.425)">
          <ellipse id="Ellipse_6-13" data-name="Ellipse 6" cx="2" cy="2.5" rx="2" ry="2.5" transform="translate(0.298 -0.148)" fill="#a7cfde"/>
          <path id="Subtraction_2-13" data-name="Subtraction 2" d="M.633,3.7A2.174,2.174,0,0,1,.17,3.013a2.159,2.159,0,0,1-.126-.407,2.191,2.191,0,0,1,0-.874A2.158,2.158,0,0,1,.371.957,2.176,2.176,0,0,1,1.325.171,2.159,2.159,0,0,1,1.733.044,2.186,2.186,0,0,1,2.829.1,2.176,2.176,0,0,1,4.191,1.377,2.174,2.174,0,0,0,3.5.91,2.159,2.159,0,0,0,3.092.783a2.191,2.191,0,0,0-.876,0,2.158,2.158,0,0,0-.776.327,2.177,2.177,0,0,0-.786.955,2.159,2.159,0,0,0-.126.407,2.186,2.186,0,0,0-.044.437,2.16,2.16,0,0,0,.15.793Z" transform="translate(0 0.024)" fill="#9ec3d3"/>
        </g>
      </g>
    </g>
  </g>
</svg>
